<svg xmlns="http://www.w3.org/2000/svg" width="22" height="22" fill="none"><path fill="#F7F7F7" fill-rule="evenodd" d="M12.158 1.158a1.158 1.158 0 1 0-2.316 0v.58a1.158 1.158 0 1 0 2.316 0v-.58Zm6.62 3.7a1.158 1.158 0 0 0-1.637-1.636l-.411.41a1.158 1.158 0 0 0 1.637 1.638l.411-.411ZM4.858 3.223A1.158 1.158 0 1 0 3.222 4.86l.41.411A1.158 1.158 0 0 0 5.27 3.633l-.411-.411Zm-3.7 6.62a1.158 1.158 0 1 0 0 2.316h.58a1.158 1.158 0 1 0 0-2.316h-.58Zm19.103 0a1.158 1.158 0 1 0 0 2.316h.581a1.158 1.158 0 1 0 0-2.316h-.58ZM5.27 18.367a1.158 1.158 0 1 0-1.637-1.637l-.411.411a1.158 1.158 0 0 0 1.637 1.637l.41-.41Zm13.097-1.637a1.157 1.157 0 1 0-1.637 1.637l.41.411a1.158 1.158 0 0 0 1.638-1.637l-.41-.41Zm-6.21 3.531a1.158 1.158 0 1 0-2.315 0v.581a1.158 1.158 0 0 0 2.316 0v-.58ZM6.37 11a4.63 4.63 0 1 1 9.262 0 4.63 4.63 0 0 1-9.262 0ZM11 4.054a6.946 6.946 0 1 0 0 13.892 6.946 6.946 0 0 0 0-13.892Z" clip-rule="evenodd"/></svg>